<svg width="60" height="50" viewBox="0 0 60 50" fill="none" xmlns="http://www.w3.org/2000/svg">
<path d="M0 0H60V50H0V0Z" fill="#009CC2"/>
<path fill-rule="evenodd" clip-rule="evenodd" d="M38.4817 29.0825C37.8054 28.8852 37.1978 28.4244 36.6704 27.7002C36.1431 26.9762 35.8794 26.1535 35.8794 25.2539C35.8794 24.4203 36.1316 23.6632 36.6246 22.983C36.8997 22.5992 37.3354 22.1713 37.9315 21.6886C37.5417 21.2278 37.1404 20.8549 36.7392 20.5916C36.0284 20.1198 35.2145 19.8786 34.2973 19.8786C33.7356 19.8786 33.0707 20.0101 32.3141 20.2515C31.5575 20.5038 31.0071 20.6244 30.6747 20.6244C30.411 20.6244 29.8837 20.5147 29.0927 20.2953C28.2901 20.076 27.6253 19.9663 27.0635 19.9663C25.7451 19.9663 24.6675 20.4929 23.8077 21.5459C22.9479 22.6101 22.5122 23.9704 22.5122 25.6489C22.5122 27.4479 23.0854 29.2801 24.1975 31.1668C25.3324 33.0538 26.4673 34.0082 27.6482 34.0082C28.0265 34.0082 28.5309 33.8876 29.1614 33.6353C29.7805 33.3939 30.3308 33.2731 30.7893 33.2731C31.2593 33.2731 31.844 33.3828 32.5204 33.6242C33.2082 33.8547 33.7356 33.9753 34.1254 33.9753C35.0998 33.9753 36.0858 33.2622 37.0717 31.8252C37.7366 30.8707 38.1952 29.9492 38.4817 29.0825ZM34.1712 16.2144C34.1712 16.1377 34.1598 16.0718 34.1598 15.995C34.1483 15.9292 34.1254 15.8524 34.1024 15.7537C32.7726 16.0498 31.8096 16.5875 31.2364 17.3774C30.6632 18.1672 30.3652 19.1106 30.3422 20.1966C30.881 20.1527 31.2708 20.0869 31.5345 20.0101C31.9472 19.8786 32.3599 19.6152 32.7726 19.2203C33.2541 18.7595 33.6095 18.2549 33.8388 17.7064C34.0566 17.1689 34.1712 16.6643 34.1712 16.2144Z" fill="white"/>
</svg>
