<svg width="60" height="50" viewBox="0 0 60 50" fill="none" xmlns="http://www.w3.org/2000/svg">
<path d="M0 0H60V50H0V0Z" fill="#009CC2"/>
<path fill-rule="evenodd" clip-rule="evenodd" d="M27.6466 18.1722C27.3631 18.1722 27.1335 17.9334 27.1335 17.6548C27.1335 17.3763 27.3631 17.1375 27.6466 17.1375C27.9436 17.1375 28.1731 17.3763 28.1731 17.6548C28.1731 17.9334 27.9436 18.1722 27.6466 18.1722ZM33.3439 18.1722C33.0469 18.1722 32.8174 17.9334 32.8174 17.6548C32.8174 17.3763 33.0469 17.1375 33.3439 17.1375C33.6274 17.1375 33.8569 17.3763 33.8569 17.6548C33.8569 17.9334 33.6274 18.1722 33.3439 18.1722ZM22.3813 20.6129C21.6117 20.6129 20.9907 21.2232 20.9907 21.9659V27.6698C20.9907 28.426 21.6117 29.0362 22.3813 29.0362C23.1508 29.0362 23.7583 28.426 23.7583 27.6698V21.9659C23.7583 21.2232 23.1373 20.6129 22.3813 20.6129ZM36.6921 20.8649H24.2984V29.6995C24.2984 30.5086 24.96 31.1586 25.7835 31.1586H26.7825L26.796 34.1698C26.796 34.9259 27.4171 35.5362 28.1731 35.5362C28.9426 35.5362 29.5637 34.9259 29.5637 34.1698V31.1586H31.4268V34.1698C31.4268 34.9259 32.0478 35.5362 32.8174 35.5362C33.5869 35.5362 34.208 34.9259 34.208 34.1698V31.1586H35.2205C36.0306 31.1586 36.6921 30.5086 36.6921 29.6995V20.8649ZM33.5599 15.4926L34.5185 13.7549C34.5725 13.6621 34.5455 13.5427 34.451 13.4897C34.3564 13.4497 34.2349 13.4763 34.181 13.5692L33.2089 15.3202C32.3853 14.9619 31.4673 14.7631 30.4952 14.7631C29.5232 14.7631 28.6051 14.9619 27.7816 15.3202L26.8095 13.5692C26.7555 13.4763 26.634 13.4497 26.5395 13.4897C26.445 13.5427 26.418 13.6621 26.472 13.7549L27.4305 15.4926C25.527 16.4478 24.2444 18.2783 24.2444 20.3873H36.7326C36.7326 18.2783 35.45 16.4478 33.5599 15.4926ZM39.9998 21.9659C39.9998 21.2098 39.3787 20.6129 38.6092 20.6129C37.8532 20.6129 37.2321 21.2098 37.2321 21.9659V27.6698C37.2321 28.426 37.8532 29.0362 38.6092 29.0362C39.3787 29.0362 39.9998 28.426 39.9998 27.6698V21.9659Z" fill="white"/>
</svg>
