<svg width="66" height="46" viewBox="0 0 66 46" fill="none" xmlns="http://www.w3.org/2000/svg">
<path d="M0 0H66V46H0V0Z" fill="#00AFDB"/>
<path fill-rule="evenodd" clip-rule="evenodd" d="M42.1731 18.972C42.1731 18.6939 42.0665 18.4156 41.8746 18.2154L40.4247 16.7023C40.2328 16.5019 39.9663 16.3908 39.6997 16.3908C39.4332 16.3908 39.1667 16.5019 38.9747 16.7023L31.9811 24.0122L28.8467 20.7299C28.6548 20.5297 28.3882 20.4183 28.1217 20.4183C27.8552 20.4183 27.5886 20.5297 27.3967 20.7299L25.9468 22.2432C25.7549 22.4434 25.6483 22.7215 25.6483 22.9997C25.6483 23.2778 25.7549 23.5559 25.9468 23.7563L29.8062 27.7839L31.2561 29.2971C31.448 29.4973 31.7145 29.6087 31.9811 29.6087C32.2476 29.6087 32.5141 29.4973 32.706 29.2971L34.1559 27.7839L41.8746 19.7285C42.0665 19.5283 42.1731 19.2502 42.1731 18.972Z" fill="white"/>
</svg>
